<svg version="1.1" viewBox="0.0 0.0 540.0944881889764 540.0" fill="none" stroke="none" stroke-linecap="square" stroke-miterlimit="10" xmlns:xlink="http://www.w3.org/1999/xlink" xmlns="http://www.w3.org/2000/svg"><clipPath id="g1059fc4cc43_0_4.0"><path d="m0 0l540.0945 0l0 540.0l-540.0945 0l0 -540.0z" clip-rule="nonzero"/></clipPath><g clip-path="url(#g1059fc4cc43_0_4.0)"><path fill="#ffffff" d="m0 0l540.0945 0l0 540.0l-540.0945 0z" fill-rule="evenodd"/><path fill="#000000" d="m81.07087 81.02362l377.95276 0l0 377.95276l-377.95276 0z" fill-rule="evenodd"/><path stroke="#000000" stroke-width="1.0" stroke-linejoin="round" stroke-linecap="butt" d="m81.07087 81.02362l377.95276 0l0 377.95276l-377.95276 0z" fill-rule="evenodd"/><path fill="#ffffff" d="m118.86614 105.83465l302.36218 0l0 37.79528l-302.36218 0z" fill-rule="evenodd"/><path stroke="#ffffff" stroke-width="1.0" stroke-linejoin="round" stroke-linecap="butt" d="m118.86614 105.83465l302.36218 0l0 37.79528l-302.36218 0z" fill-rule="evenodd"/><path fill="#ffffff" d="m118.86614 161.64568l302.36218 0l0 141.70079l-302.36218 0z" fill-rule="evenodd"/><path stroke="#ffffff" stroke-width="1.0" stroke-linejoin="round" stroke-linecap="butt" d="m118.86614 161.64568l302.36218 0l0 141.70079l-302.36218 0z" fill-rule="evenodd"/><path fill="#ffffff" d="m118.86614 331.33597l302.36218 0l0 8.4409485l-302.36218 0z" fill-rule="evenodd"/><path stroke="#ffffff" stroke-width="1.0" stroke-linejoin="round" stroke-linecap="butt" d="m118.86614 331.33597l302.36218 0l0 8.4409485l-302.36218 0z" fill-rule="evenodd"/><path fill="#ffffff" d="m118.86614 353.3528l151.18109 0l0 8.4409485l-151.18109 0z" fill-rule="evenodd"/><path stroke="#ffffff" stroke-width="1.0" stroke-linejoin="round" stroke-linecap="butt" d="m118.86614 353.3528l151.18109 0l0 8.4409485l-151.18109 0z" fill-rule="evenodd"/><path fill="#ffffff" d="m118.86614 375.3697l302.36218 0l0 8.440918l-302.36218 0z" fill-rule="evenodd"/><path stroke="#ffffff" stroke-width="1.0" stroke-linejoin="round" stroke-linecap="butt" d="m118.86614 375.3697l302.36218 0l0 8.440918l-302.36218 0z" fill-rule="evenodd"/><path fill="#ffffff" d="m118.86614 397.38654l302.36218 0l0 8.4409485l-302.36218 0z" fill-rule="evenodd"/><path stroke="#ffffff" stroke-width="1.0" stroke-linejoin="round" stroke-linecap="butt" d="m118.86614 397.38654l302.36218 0l0 8.4409485l-302.36218 0z" fill-rule="evenodd"/><path fill="#ffffff" d="m118.86614 419.4034l113.385826 0l0 8.440918l-113.385826 0z" fill-rule="evenodd"/><path stroke="#ffffff" stroke-width="1.0" stroke-linejoin="round" stroke-linecap="butt" d="m118.86614 419.4034l113.385826 0l0 8.440918l-113.385826 0z" fill-rule="evenodd"/></g></svg>