<?xml version="1.0" encoding="UTF-8" standalone="no"?>
<!-- Created with Inkscape (http://www.inkscape.org/) -->

<svg
   version="1.1"
   id="svg9"
   width="378"
   height="379"
   viewBox="0 0 378 379"
   sodipodi:docname="article.svg"
   inkscape:version="1.1 (c68e22c387, 2021-05-23)"
   xmlns:inkscape="http://www.inkscape.org/namespaces/inkscape"
   xmlns:sodipodi="http://sodipodi.sourceforge.net/DTD/sodipodi-0.dtd"
   xmlns="http://www.w3.org/2000/svg"
   xmlns:svg="http://www.w3.org/2000/svg">
  <defs
     id="defs13" />
  <sodipodi:namedview
     id="namedview11"
     pagecolor="#ffffff"
     bordercolor="#666666"
     borderopacity="1.0"
     inkscape:pageshadow="2"
     inkscape:pageopacity="0.0"
     inkscape:pagecheckerboard="0"
     showgrid="false"
     fit-margin-top="0"
     fit-margin-left="0"
     fit-margin-right="0"
     fit-margin-bottom="0"
     inkscape:zoom="1.5194805"
     inkscape:cx="202.70085"
     inkscape:cy="145.11538"
     inkscape:window-width="1920"
     inkscape:window-height="1027"
     inkscape:window-x="-8"
     inkscape:window-y="-8"
     inkscape:window-maximized="1"
     inkscape:current-layer="g15" />
  <g
     inkscape:groupmode="layer"
     inkscape:label="Image"
     id="g15"
     transform="translate(-67.008546,-71.7735)">
    <path
       style="fill:#000000"
       d="M 67.008546,261.27351 V 71.7735 h 189.000004 189 v 189.50001 189.5 h -189 -189.000004 z m 152.000004,153.5 v -5 h -57.5 -57.5 v 5 5 h 57.5 57.5 z m 189,-22 v -5 h -152 -152 v 5 5 h 152 152 z m 0,-22 v -5 h -152 -152 v 5 5 h 152 152 z m -151,-22 v -5 h -76.5 -76.5 v 5 5 h 76.5 76.5 z m 151,-22 v -5 h -152 -152 v 5 5 h 152 152 z m 0,-103 v -71 h -152 -152 v 71 71 h 152 152 z m 0,-107.5 V 96.773505 h -152 -152 v 19.500005 19.5 h 152 152 z"
       id="path551" />
  </g>
</svg>
