<?xml version="1.0" encoding="UTF-8" standalone="no"?>
<!-- Created with Inkscape (http://www.inkscape.org/) -->

<svg
   width="102.8382mm"
   height="113.50625mm"
   viewBox="0 0 102.8382 113.50625"
   version="1.1"
   id="svg938"
   inkscape:version="1.1 (c68e22c387, 2021-05-23)"
   sodipodi:docname="calendar.svg"
   xmlns:inkscape="http://www.inkscape.org/namespaces/inkscape"
   xmlns:sodipodi="http://sodipodi.sourceforge.net/DTD/sodipodi-0.dtd"
   xmlns="http://www.w3.org/2000/svg"
   xmlns:svg="http://www.w3.org/2000/svg">
  <sodipodi:namedview
     id="namedview940"
     pagecolor="#ffffff"
     bordercolor="#666666"
     borderopacity="1.0"
     inkscape:pageshadow="2"
     inkscape:pageopacity="0.0"
     inkscape:pagecheckerboard="0"
     inkscape:document-units="mm"
     showgrid="false"
     fit-margin-top="0"
     fit-margin-left="0"
     fit-margin-right="0"
     fit-margin-bottom="0"
     inkscape:zoom="0.7500982"
     inkscape:cx="157.31273"
     inkscape:cy="439.27581"
     inkscape:window-width="1920"
     inkscape:window-height="1027"
     inkscape:window-x="-8"
     inkscape:window-y="-8"
     inkscape:window-maximized="1"
     inkscape:current-layer="layer1" />
  <defs
     id="defs935" />
  <g
     inkscape:label="レイヤー 1"
     inkscape:groupmode="layer"
     id="layer1"
     transform="translate(-63.571364,-32.357202)">
    <path
       style="fill:#000000;stroke-width:0.264583"
       d="m 63.597174,94.600431 c -0.03748,-28.194661 -0.03368,-53.733568 0.0084,-56.753125 l 0.07655,-5.490104 h 51.308336 51.30834 l 0.0766,5.490104 c 0.0421,3.019557 0.0459,28.558464 0.008,56.753125 l -0.0681,51.263019 H 114.9905 63.66531 Z m 101.863276,-0.132292 0.0668,-50.469271 h -50.53609 -50.5361 v 50.359028 c 0,27.697464 0.07968,50.438704 0.17707,50.536094 0.09739,0.0974 22.80856,0.147 50.46927,0.11025 l 50.2922,-0.0668 z M 72.127997,124.16762 v -13.22917 h 13.096875 13.096875 v 13.22917 13.22916 H 85.224872 72.127997 Z m 29.633333,0 v -13.22917 h 13.22917 13.22916 v 13.22917 13.22916 H 114.9905 101.76133 Z M 72.127997,94.401994 V 81.305119 H 85.224872 98.321747 V 94.401994 107.49887 H 85.224872 72.127997 Z m 29.633333,0 V 81.305119 h 13.22917 13.22916 V 94.401994 107.49887 H 114.9905 101.76133 Z m 29.89792,0 V 81.305119 H 144.75612 157.853 V 94.401994 107.49887 H 144.75612 131.65925 Z M 72.127997,64.636369 V 51.407202 H 85.224872 98.321747 V 64.636369 77.865535 H 85.224872 72.127997 Z m 29.633333,0 V 51.407202 h 13.22917 13.22916 V 64.636369 77.865535 H 114.9905 101.76133 Z m 29.89792,0 V 51.407202 h 13.09687 13.09688 v 13.229167 13.229166 h -13.09688 -13.09687 z m -20.2914,-22.55573 c -1.2164,-1.281787 -1.66902,-2.376006 -1.66902,-4.034895 0,-1.659414 0.45263,-2.753128 1.67041,-4.03632 l 0.81741,-0.861319 -23.799642,0.06757 -23.799636,0.06757 -0.0728,4.488201 c -0.04004,2.468509 -0.01402,4.6414 0.05784,4.828645 0.105159,0.274037 4.761466,0.340445 23.871055,0.340445 h 23.740413 z m 54.02577,-4.034895 v -4.7625 l -23.80144,-0.06757 -23.80144,-0.06757 0.96538,0.993614 c 1.19693,1.231945 1.52604,2.079442 1.52604,3.92975 0,1.662779 -0.42765,2.834352 -1.42012,3.890513 -0.3831,0.40768 -0.69654,0.795274 -0.69654,0.861319 0,0.06604 10.62633,0.08967 23.61406,0.05251 l 23.61406,-0.06757 z m -47.77777,3.627926 c 1.69239,-1.261319 2.21747,-4.16679 1.08438,-6.000178 -2.27736,-3.684835 -7.98716,-1.988976 -7.98716,2.372252 0,3.544942 4.11339,5.706837 6.90278,3.627926 z"
       id="path972" />
  </g>
</svg>
