<?xml version="1.0" encoding="UTF-8" standalone="no"?>
<!-- Created with Inkscape (http://www.inkscape.org/) -->

<svg
   version="1.1"
   id="svg9"
   width="454"
   height="487"
   viewBox="0 0 454 487"
   sodipodi:docname="calendar.svg"
   inkscape:version="1.1 (c68e22c387, 2021-05-23)"
   xmlns:inkscape="http://www.inkscape.org/namespaces/inkscape"
   xmlns:sodipodi="http://sodipodi.sourceforge.net/DTD/sodipodi-0.dtd"
   xmlns="http://www.w3.org/2000/svg"
   xmlns:svg="http://www.w3.org/2000/svg">
  <defs
     id="defs13" />
  <sodipodi:namedview
     id="namedview11"
     pagecolor="#ffffff"
     bordercolor="#666666"
     borderopacity="1.0"
     inkscape:pageshadow="2"
     inkscape:pageopacity="0.0"
     inkscape:pagecheckerboard="0"
     showgrid="false"
     fit-margin-top="0"
     fit-margin-left="0"
     fit-margin-right="0"
     fit-margin-bottom="0"
     inkscape:zoom="1.6153846"
     inkscape:cx="224.71429"
     inkscape:cy="241.11905"
     inkscape:window-width="1920"
     inkscape:window-height="1027"
     inkscape:window-x="-8"
     inkscape:window-y="-8"
     inkscape:window-maximized="1"
     inkscape:current-layer="g15" />
  <g
     inkscape:groupmode="layer"
     inkscape:label="Image"
     id="g15"
     transform="translate(-32.238091,-12.666667)">
    <path
       style="fill:#000000"
       d="M 32.238091,256.16667 V 12.666667 h 226.999999 227 v 243.500003 243.5 h -227 -226.999999 z m 141.999999,154.5 v -57 h -57 -56.999999 v 57 57 h 56.999999 57 z m 142,0 v -57 h -57 -57 v 57 57 h 57 57 z m -142,-138 v -57 h -57 -56.999999 v 57 57 h 56.999999 57 z m 142,0 v -57 h -57 -57 v 57 57 h 57 57 z m 142,0 v -57 h -57 -57 v 57 57 h 57 57 z m -142,-138 V 77.666667 h -57 -57 v 57.000003 57 h 57 57 z m 142,0 V 77.666667 h -57 -57 v 57.000003 57 h 57 57 z M 267.13931,58.21775 c 4.2137,-2.178993 8.91545,-8.056952 9.67247,-12.092175 2.37247,-12.64635 -5.01558,-22.458908 -16.90972,-22.458908 -7.65583,0 -13.83191,3.651375 -17.25325,10.20034 -1.85671,3.554029 -1.7979,11.150254 0.11496,14.84932 0.83912,1.622687 1.2546,2.95034 0.92327,2.95034 -1.01308,0 4.8635,4.609229 8.05105,6.314753 3.77037,2.017364 11.72115,2.139368 15.40122,0.23633 z"
       id="path117" />
  </g>
</svg>
