<svg version="1.1" viewBox="0.0 0.0 960.0 540.0" fill="none" stroke="none" stroke-linecap="square" stroke-miterlimit="10" xmlns:xlink="http://www.w3.org/1999/xlink" xmlns="http://www.w3.org/2000/svg"><clipPath id="g104012d0366_0_32.0"><path d="m0 0l960.0 0l0 540.0l-960.0 0l0 -540.0z" clip-rule="nonzero"/></clipPath><g clip-path="url(#g104012d0366_0_32.0)"><path fill="#ffffff" d="m0 0l960.0 0l0 540.0l-960.0 0z" fill-rule="evenodd"/><path fill="#000000" d="m272.12598 158.58817l353.38586 0l0 315.57355l-353.38586 0z" fill-rule="evenodd"/><path stroke="#000000" stroke-width="8.0" stroke-linejoin="round" stroke-linecap="butt" d="m272.12598 158.58817l353.38586 0l0 315.57355l-353.38586 0z" fill-rule="evenodd"/><path fill="#ffffff" d="m513.07086 172.9324l96.37793 0l0 86.06552l-96.37793 0z" fill-rule="evenodd"/><path stroke="#ffffff" stroke-width="3.0" stroke-linejoin="round" stroke-linecap="butt" d="m513.07086 172.9324l96.37793 0l0 86.06552l-96.37793 0z" fill-rule="evenodd"/><path fill="#ffffff" d="m288.18896 373.75192l96.37796 0l0 86.06552l-96.37796 0z" fill-rule="evenodd"/><path stroke="#ffffff" stroke-width="3.0" stroke-linejoin="round" stroke-linecap="butt" d="m288.18896 373.75192l96.37796 0l0 86.06552l-96.37796 0z" fill-rule="evenodd"/><path fill="#ffffff" d="m400.6299 172.9324l96.37796 0l0 86.06552l-96.37796 0z" fill-rule="evenodd"/><path stroke="#ffffff" stroke-width="3.0" stroke-linejoin="round" stroke-linecap="butt" d="m400.6299 172.9324l96.37796 0l0 86.06552l-96.37796 0z" fill-rule="evenodd"/><path fill="#ffffff" d="m288.18896 273.34216l96.37796 0l0 86.06552l-96.37796 0z" fill-rule="evenodd"/><path stroke="#ffffff" stroke-width="3.0" stroke-linejoin="round" stroke-linecap="butt" d="m288.18896 273.34216l96.37796 0l0 86.06552l-96.37796 0z" fill-rule="evenodd"/><path fill="#ffffff" d="m400.6299 373.75192l96.37796 0l0 86.078766l-96.37796 0z" fill-rule="evenodd"/><path stroke="#ffffff" stroke-width="3.0" stroke-linejoin="round" stroke-linecap="butt" d="m400.6299 373.75192l96.37796 0l0 86.078766l-96.37796 0z" fill-rule="evenodd"/><path fill="#ffffff" d="m513.07086 273.34216l96.37793 0l0 86.06552l-96.37793 0z" fill-rule="evenodd"/><path stroke="#ffffff" stroke-width="3.0" stroke-linejoin="round" stroke-linecap="butt" d="m513.07086 273.34216l96.37793 0l0 86.06552l-96.37793 0z" fill-rule="evenodd"/><path fill="#ffffff" d="m400.6299 273.34216l96.37796 0l0 86.06552l-96.37796 0z" fill-rule="evenodd"/><path stroke="#ffffff" stroke-width="3.0" stroke-linejoin="round" stroke-linecap="butt" d="m400.6299 273.34216l96.37796 0l0 86.06552l-96.37796 0z" fill-rule="evenodd"/><path fill="#000000" d="m272.12598 120.80577l353.38586 0l0 37.795273l-353.38586 0z" fill-rule="evenodd"/><path stroke="#000000" stroke-width="8.0" stroke-linejoin="round" stroke-linecap="butt" d="m272.12598 120.80577l353.38586 0l0 37.795273l-353.38586 0z" fill-rule="evenodd"/><path fill="#ffffff" d="m429.92126 144.69029l0 0c0 -10.436874 8.460754 -18.897644 18.897644 -18.897644l0 0c5.011963 0 9.818634 1.9909973 13.36264 5.5349884c3.5439758 3.543991 5.534973 8.350693 5.534973 13.362656l0 0c0 10.436874 -8.460754 18.897629 -18.897614 18.897629l0 0c-10.43689 0 -18.897644 -8.460754 -18.897644 -18.897629z" fill-rule="evenodd"/><path stroke="#595959" stroke-width="1.0" stroke-linejoin="round" stroke-linecap="butt" d="m429.92126 144.69029l0 0c0 -10.436874 8.460754 -18.897644 18.897644 -18.897644l0 0c5.011963 0 9.818634 1.9909973 13.36264 5.5349884c3.5439758 3.543991 5.534973 8.350693 5.534973 13.362656l0 0c0 10.436874 -8.460754 18.897629 -18.897614 18.897629l0 0c-10.43689 0 -18.897644 -8.460754 -18.897644 -18.897629z" fill-rule="evenodd"/></g></svg>