<?xml version="1.0" encoding="UTF-8" standalone="no"?>
<!-- Created with Inkscape (http://www.inkscape.org/) -->

<svg
   version="1.1"
   id="svg9"
   width="454"
   height="487"
   viewBox="0 0 454 487"
   sodipodi:docname="calendar.svg"
   inkscape:version="1.1 (c68e22c387, 2021-05-23)"
   xmlns:inkscape="http://www.inkscape.org/namespaces/inkscape"
   xmlns:sodipodi="http://sodipodi.sourceforge.net/DTD/sodipodi-0.dtd"
   xmlns="http://www.w3.org/2000/svg"
   xmlns:svg="http://www.w3.org/2000/svg">
  <defs
     id="defs13" />
  <sodipodi:namedview
     id="namedview11"
     pagecolor="#ffffff"
     bordercolor="#666666"
     borderopacity="1.0"
     inkscape:pageshadow="2"
     inkscape:pageopacity="0.0"
     inkscape:pagecheckerboard="0"
     showgrid="false"
     fit-margin-top="0"
     fit-margin-left="0"
     fit-margin-right="0"
     fit-margin-bottom="0"
     inkscape:zoom="1.6153846"
     inkscape:cx="227.80952"
     inkscape:cy="244.83333"
     inkscape:window-width="1920"
     inkscape:window-height="1027"
     inkscape:window-x="-8"
     inkscape:window-y="-8"
     inkscape:window-maximized="1"
     inkscape:current-layer="g15" />
  <g
     inkscape:groupmode="layer"
     inkscape:label="Image"
     id="g15"
     transform="translate(-29.142857,-8.9523809)">
    <g
       id="g171"
       transform="translate(-1.8571429,-8.0476191)">
      <path
         style="fill:#b9b9b9;fill-opacity:1"
         d="M 31,260.5 V 17 H 258 485 V 260.5 504 H 258 31 Z M 173,415 V 358 H 116 59 v 57 57 h 57 57 z m 142,0 v -57 h -57 -57 v 57 57 h 57 57 z M 173,277 V 220 H 116 59 v 57 57 h 57 57 z m 142,0 v -57 h -57 -57 v 57 57 h 57 57 z m 142,0 v -57 h -57 -57 v 57 57 h 57 57 z M 315,139 V 82 h -57 -57 v 57 57 h 57 57 z m 142,0 V 82 h -57 -57 v 57 57 h 57 57 z M 266.03004,61.75 c 14.03482,-7.090176 12.47937,-28.843022 -2.34794,-32.835601 -11.38039,-3.064422 -23.57333,5.37046 -23.66014,16.36772 -0.0522,6.612248 4.81963,13.754783 11.47804,16.827838 5.31362,2.452392 9.15126,2.357321 14.53004,-0.359957 z"
         id="path185" />
      <path
         style="fill:#a3a3a3;fill-opacity:1"
         d="M 31,260.5 V 17 H 258 485 V 260.5 504 H 258 31 Z M 173,415 V 358 H 116 59 v 57 57 h 57 57 z m 142,0 v -57 h -57 -57 v 57 57 h 57 57 z M 173,277 V 220 H 116 59 v 57 57 h 57 57 z m 142,0 v -57 h -57 -57 v 57 57 h 57 57 z m 142,0 v -57 h -57 -57 v 57 57 h 57 57 z M 315,139 V 82 h -57 -57 v 57 57 h 57 57 z m 142,0 V 82 h -57 -57 v 57 57 h 57 57 z M 268.53671,60.539797 c 10.37033,-7.909837 9.55441,-24.393072 -1.49673,-30.237058 -14.33294,-7.57944 -31.10735,5.842983 -26.13417,20.911849 1.34741,4.082693 6.38471,9.526017 10.59419,11.44812 4.78038,2.182784 12.68264,1.198099 17.03671,-2.122911 z"
         id="path183" />
      <path
         style="fill:#8c8c8c;fill-opacity:1"
         d="M 31,260.5 V 17 H 258 485 V 260.5 504 H 258 31 Z M 173,415 V 358 H 116 59 v 57 57 h 57 57 z m 142,0 v -57 h -57 -57 v 57 57 h 57 57 z M 173,277 V 220 H 116 59 v 57 57 h 57 57 z m 142,0 v -57 h -57 -57 v 57 57 h 57 57 z m 142,0 v -57 h -57 -57 v 57 57 h 57 57 z M 315,139 V 82 h -57 -57 v 57 57 h 57 57 z m 142,0 V 82 h -57 -57 v 57 57 h 57 57 z M 264.6849,62.933388 c 9.69829,-3.674582 14.03986,-16.11122 9.0651,-25.967382 -4.12614,-8.174839 -14.16861,-11.230237 -23.29137,-7.086342 -7.62719,3.464551 -11.45645,10.584036 -10.12053,18.816391 1.75792,10.832771 14.17229,18.092351 24.3468,14.237333 z"
         id="path181" />
      <path
         style="fill:#767676;fill-opacity:1"
         d="M 31,260.5 V 17 H 258 485 V 260.5 504 H 258 31 Z M 173,415 V 358 H 116 59 v 57 57 h 57 57 z m 142,0 v -57 h -57 -57 v 57 57 h 57 57 z M 173,277 V 220 H 116 59 v 57 57 h 57 57 z m 142,0 v -57 h -57 -57 v 57 57 h 57 57 z m 142,0 v -57 h -57 -57 v 57 57 h 57 57 z M 315,139 V 82 h -57 -57 v 57 57 h 57 57 z m 142,0 V 82 h -57 -57 v 57 57 h 57 57 z M 265.90122,62.551083 c 4.2137,-2.178993 8.91545,-8.056952 9.67247,-12.092175 C 277.94616,37.812558 270.55811,28 258.66397,28 c -7.65583,0 -13.83191,3.651375 -17.25325,10.20034 -3.0155,5.772139 -0.85032,16.475392 4.23287,20.924501 5.47644,4.79331 14.62259,6.34023 20.25763,3.426242 z"
         id="path179" />
      <path
         style="fill:#606060;fill-opacity:1"
         d="M 31,260.5 V 17 H 258 485 V 260.5 504 H 258 31 Z M 173,415 V 358 H 116 59 v 57 57 h 57 57 z m 142,0 v -57 h -57 -57 v 57 57 h 57 57 z M 173,277 V 220 H 116 59 v 57 57 h 57 57 z m 142,0 v -57 h -57 -57 v 57 57 h 57 57 z m 142,0 v -57 h -57 -57 v 57 57 h 57 57 z M 315,139 V 82 h -57 -57 v 57 57 h 57 57 z m 142,0 V 82 h -57 -57 v 57 57 h 57 57 z M 260.36044,64.028659 c 3.68827,-0.604023 7.16083,-1.951609 9.36884,-3.63574 10.42251,-7.949635 8.68512,-24.947198 -3.18067,-31.117754 -3.17164,-1.64935 -11.28586,-2.569121 -13.00197,-1.473812 -0.57565,0.367412 -1.27164,0.713777 -1.54664,0.769701 -3.95455,0.804191 -7.73584,4.103331 -10.22523,8.921416 -2.21946,4.295654 -3.22809,12.109328 -1.68615,13.062302 0.5192,0.320883 0.71926,0.947061 0.44458,1.391506 -1.36681,2.211551 9.30897,12.887333 11.52052,11.52052 0.44445,-0.274682 1.09074,-0.04208 1.4362,0.51689 0.34546,0.558972 0.71406,1.013706 0.8191,1.01052 0.10504,-0.0032 2.82818,-0.437683 6.05142,-0.965549 z"
         id="path177" />
      <path
         style="fill:#494949;fill-opacity:1"
         d="M 31,260.5 V 17 H 258 485 V 260.5 504 H 258 31 Z M 173,415 V 358 H 116 59 v 57 57 h 57 57 z m 142,0 v -57 h -57 -57 v 57 57 h 57 57 z M 173,277 V 220 H 116 59 v 57 57 h 57 57 z m 142,0 v -57 h -57 -57 v 57 57 h 57 57 z m 142,0 v -57 h -57 -57 v 57 57 h 57 57 z M 315,139 V 82 h -57 -57 v 57 57 h 57 57 z m 142,0 V 82 h -57 -57 v 57 57 h 57 57 z M 267.73359,62.349585 c 1.45785,-1.088446 4.02669,-3.679145 5.70853,-5.757109 2.73336,-3.377165 3.05788,-4.492361 3.05788,-10.508326 0,-5.709985 -0.42789,-7.376787 -2.82267,-10.995557 -7.3159,-11.055073 -23.95582,-10.661236 -31.76751,0.751879 -1.96046,2.864292 -2.40911,4.776003 -2.40603,10.252042 0.003,5.998269 0.33636,7.149142 3.05797,10.569351 4.51564,5.674735 10.68559,8.563805 17.22971,8.067785 3.18514,-0.241422 6.34659,-1.188834 7.94212,-2.380065 z"
         id="path175" />
      <path
         style="fill:#333333;fill-opacity:1"
         d="M 31,260.5 V 17 H 258 485 V 260.5 504 H 258 31 Z M 173,415 V 358 H 116 59 v 57 57 h 57 57 z m 142,0 v -57 h -57 -57 v 57 57 h 57 57 z M 173,277 V 220 H 116 59 v 57 57 h 57 57 z m 142,0 v -57 h -57 -57 v 57 57 h 57 57 z m 142,0 v -57 h -57 -57 v 57 57 h 57 57 z M 315,139 V 82 h -57 -57 v 57 57 h 57 57 z m 142,0 V 82 h -57 -57 v 57 57 h 57 57 z M 266.75026,62.878851 c 13.6604,-6.612885 13.55363,-27.748802 -0.17166,-33.98252 -12.30251,-5.58752 -26.09187,1.98281 -27.34378,15.011671 -0.59641,6.206885 0.97134,10.897215 5.03767,15.071601 6.15129,6.314734 14.4973,7.762528 22.47777,3.899248 z"
         id="path173" />
    </g>
  </g>
</svg>
