<?xml version="1.0" encoding="UTF-8" standalone="no"?>
<svg
   xmlns:dc="http://purl.org/dc/elements/1.1/"
   xmlns:cc="http://creativecommons.org/ns#"
   xmlns:rdf="http://www.w3.org/1999/02/22-rdf-syntax-ns#"
   xmlns:svg="http://www.w3.org/2000/svg"
   xmlns="http://www.w3.org/2000/svg"
   xmlns:sodipodi="http://sodipodi.sourceforge.net/DTD/sodipodi-0.dtd"
   xmlns:inkscape="http://www.inkscape.org/namespaces/inkscape"
   version="1.1"
   id="svg24"
   width="486"
   height="305"
   viewBox="0 0 486 305"
   sodipodi:docname="camera.svg"
   inkscape:version="1.0.2-2 (e86c870879, 2021-01-15)">
  <metadata
     id="metadata30">
    <rdf:RDF>
      <cc:Work
         rdf:about="">
        <dc:format>image/svg+xml</dc:format>
        <dc:type
           rdf:resource="http://purl.org/dc/dcmitype/StillImage" />
        <dc:title></dc:title>
      </cc:Work>
    </rdf:RDF>
  </metadata>
  <defs
     id="defs28" />
  <sodipodi:namedview
     pagecolor="#ffffff"
     bordercolor="#666666"
     borderopacity="1"
     objecttolerance="10"
     gridtolerance="10"
     guidetolerance="10"
     inkscape:pageopacity="0"
     inkscape:pageshadow="2"
     inkscape:window-width="1920"
     inkscape:window-height="1027"
     id="namedview26"
     showgrid="false"
     fit-margin-top="0"
     fit-margin-left="0"
     fit-margin-right="0"
     fit-margin-bottom="0"
     inkscape:zoom="1.4333333"
     inkscape:cx="325.25581"
     inkscape:cy="128.97674"
     inkscape:window-x="1912"
     inkscape:window-y="-8"
     inkscape:window-maximized="1"
     inkscape:current-layer="g32" />
  <g
     inkscape:groupmode="layer"
     inkscape:label="Image"
     id="g32"
     transform="translate(25.255814,-171.02326)">
    <path
       style="fill:#000000"
       d="m -25.255814,323.52326 v -152.5 h 243.000004 243 v 152.5 152.5 h -243 -243.000004 z M 271.5336,466.97028 c 29.77975,-3.22922 56.41917,-14.87128 79.90379,-34.91985 21.34144,-18.21895 38.67648,-46.97464 45.22929,-75.02717 10.67323,-45.69203 -1.21404,-93.41366 -32.07623,-128.77051 -21.31865,-24.42342 -53.20047,-42.09205 -85.39142,-47.32321 -11.41078,-1.85429 -36.86232,-1.60039 -48.2826,0.48166 -28.81343,5.25305 -55.70824,19.38746 -76.55254,40.23176 -20.74315,20.74315 -34.9798,47.80825 -40.22456,76.47035 -2.33123,12.73997 -2.33834,38.04261 -0.0143,50.73771 13.66838,74.66224 82.41691,126.2511 157.40853,118.11926 z m -31.15464,-16.08165 c -49.44035,-6.34913 -92.22295,-42.77892 -106.13018,-90.37087 -2.90098,-9.92746 -5.45639,-26.70535 -5.48225,-35.9945 -0.0388,-13.926 3.34685,-32.27245 8.46459,-45.86904 12.12926,-32.22447 38.97897,-59.81649 70.91475,-72.8753 41.63843,-17.02632 89.00073,-10.94351 125.26455,16.0879 55.2707,41.19933 67.59205,120.10421 27.49937,176.10353 -27.52048,38.43914 -74.08476,58.88289 -120.53083,52.91828 z"
       id="path36" />
  </g>
</svg>
