<?xml version="1.0" encoding="UTF-8" standalone="no"?>
<svg
   xmlns:dc="http://purl.org/dc/elements/1.1/"
   xmlns:cc="http://creativecommons.org/ns#"
   xmlns:rdf="http://www.w3.org/1999/02/22-rdf-syntax-ns#"
   xmlns:svg="http://www.w3.org/2000/svg"
   xmlns="http://www.w3.org/2000/svg"
   xmlns:sodipodi="http://sodipodi.sourceforge.net/DTD/sodipodi-0.dtd"
   xmlns:inkscape="http://www.inkscape.org/namespaces/inkscape"
   version="1.1"
   id="svg38"
   width="399.89673"
   height="399.83502"
   viewBox="0 0 399.89673 399.83502"
   sodipodi:docname="lens.svg"
   inkscape:version="1.0.2-2 (e86c870879, 2021-01-15)">
  <metadata
     id="metadata44">
    <rdf:RDF>
      <cc:Work
         rdf:about="">
        <dc:format>image/svg+xml</dc:format>
        <dc:type
           rdf:resource="http://purl.org/dc/dcmitype/StillImage" />
        <dc:title></dc:title>
      </cc:Work>
    </rdf:RDF>
  </metadata>
  <defs
     id="defs42" />
  <sodipodi:namedview
     pagecolor="#ffffff"
     bordercolor="#666666"
     borderopacity="1"
     objecttolerance="10"
     gridtolerance="10"
     guidetolerance="10"
     inkscape:pageopacity="0"
     inkscape:pageshadow="2"
     inkscape:window-width="1920"
     inkscape:window-height="1027"
     id="namedview40"
     showgrid="false"
     fit-margin-top="0"
     fit-margin-left="0"
     fit-margin-right="0"
     fit-margin-bottom="0"
     inkscape:zoom="1.4333333"
     inkscape:cx="389.70381"
     inkscape:cy="199.16861"
     inkscape:window-x="1912"
     inkscape:window-y="-8"
     inkscape:window-maximized="1"
     inkscape:current-layer="g46" />
  <g
     inkscape:groupmode="layer"
     inkscape:label="Image"
     id="g46"
     transform="translate(89.70381,-100.83139)">
    <path
       style="fill:#000000"
       d="m 86.232558,499.18035 c -23.79609,-2.94714 -43.41569,-8.93794 -65.5,-20.00028 -38.77909,-19.42498 -69.51339,-50.15497 -88.99488,-88.9824 -34.473958,-68.70806 -26.982564,-149.13954 19.62651,-210.72032 13.35973,-17.65113 38.44152,-40.01782 57.0870501,-50.90739 C 58.546738,99.312604 117.68909,92.899104 172.67783,110.76091 c 15.15722,4.92347 39.16958,16.90928 51.49217,25.70241 28.05374,20.01852 49.64527,45.01376 64.55744,74.73435 28.06639,55.93751 28.63458,120.13631 1.55943,176.19901 C 253.1279,464.33927 170.48078,509.61446 86.232558,499.18035 Z m 42.026232,-37.53553 c 13.07828,-1.62496 22.51665,-3.75056 33.97377,-7.65116 68.05302,-23.16879 113.03819,-88.91853 109.67256,-160.29599 -3.1866,-67.58079 -47.11212,-125.46892 -111.44042,-146.86401 -17.14917,-5.70369 -29.51496,-7.56631 -50.23214,-7.56631 -20.717182,0 -33.082972,1.86262 -50.232142,7.56631 -24.36083,8.10222 -43.55548,19.84142 -62.6290599,38.30312 -39.8004101,38.5236 -56.8858301,94.45683 -45.5768901,149.20688 8.67194,41.98355 36.66451,81.54006 73.77772,104.25585 30.86439,18.8911 68.37245,27.30879 102.686602,23.04531 z M 93.732558,409.31248 C 35.646768,399.77397 -5.3103619,346.60416 1.0916381,289.0477 c 2.92975,-26.33957 13.8503499,-49.21204 32.0469699,-67.12024 18.49346,-18.20034 40.52504,-28.55801 66.74392,-31.37822 47.360162,-5.09425 93.462442,22.13731 112.226552,66.28965 11.83622,27.85085 12.0687,56.82047 0.68263,85.06451 -10.97887,27.23397 -33.11945,49.37455 -60.35342,60.35342 -5.88815,2.3737 -14.30573,5.06969 -18.70573,5.99109 -10.56182,2.21175 -29.88279,2.72596 -40.000002,1.06457 z"
       id="path50" />
  </g>
</svg>
