<svg version="1.1" viewBox="0.0 0.0 540.0944881889764 540.0" fill="none" stroke="none" stroke-linecap="square" stroke-miterlimit="10" xmlns:xlink="http://www.w3.org/1999/xlink" xmlns="http://www.w3.org/2000/svg"><clipPath id="ge31e7c835a_0_0.0"><path d="m0 0l540.0945 0l0 540.0l-540.0945 0l0 -540.0z" clip-rule="nonzero"/></clipPath><g clip-path="url(#ge31e7c835a_0_0.0)"><path fill="#ffffff" d="m0 0l540.0945 0l0 540.0l-540.0945 0z" fill-rule="evenodd"/><path fill="#000000" d="m93.49606 270.0l0 0c0 -97.50653 79.04466 -176.55118 176.55118 -176.55118l0 0c46.82428 0 91.730774 18.600868 124.840546 51.710648c33.10977 33.109756 51.710632 78.01625 51.710632 124.84053l0 0c0 97.50653 -79.04465 176.55118 -176.55118 176.55118l0 0c-97.506516 0 -176.55118 -79.04465 -176.55118 -176.55118zm25.225632 0l0 0c0 83.5748 67.75076 151.32556 151.32555 151.32556c83.5748 0 151.32556 -67.75076 151.32556 -151.32556l0 0c0 -83.5748 -67.75076 -151.32555 -151.32556 -151.32555l0 0c-83.57478 0 -151.32555 67.75075 -151.32555 151.32555z" fill-rule="evenodd"/><path stroke="#595959" stroke-width="1.0" stroke-linejoin="round" stroke-linecap="butt" d="m93.49606 270.0l0 0c0 -97.50653 79.04466 -176.55118 176.55118 -176.55118l0 0c46.82428 0 91.730774 18.600868 124.840546 51.710648c33.10977 33.109756 51.710632 78.01625 51.710632 124.84053l0 0c0 97.50653 -79.04465 176.55118 -176.55118 176.55118l0 0c-97.506516 0 -176.55118 -79.04465 -176.55118 -176.55118zm25.225632 0l0 0c0 83.5748 67.75076 151.32556 151.32555 151.32556c83.5748 0 151.32556 -67.75076 151.32556 -151.32556l0 0c0 -83.5748 -67.75076 -151.32555 -151.32556 -151.32555l0 0c-83.57478 0 -151.32555 67.75075 -151.32555 151.32555z" fill-rule="evenodd"/><path fill="#000000" fill-opacity="0.0" d="m105.16535 270.0l0 0c0 -91.06175 73.82014 -164.8819 164.8819 -164.8819l0 0c43.7294 0 85.667755 17.371437 116.58911 48.292793c30.921356 30.92134 48.292786 72.859695 48.292786 116.589096l0 0c0 91.06177 -73.82013 164.8819 -164.8819 164.8819l0 0c-91.06175 0 -164.8819 -73.82013 -164.8819 -164.8819z" fill-rule="evenodd"/><path stroke="#ffffff" stroke-width="4.0" stroke-linejoin="round" stroke-linecap="butt" d="m105.16535 270.0l0 0c0 -91.06175 73.82014 -164.8819 164.8819 -164.8819l0 0c43.7294 0 85.667755 17.371437 116.58911 48.292793c30.921356 30.92134 48.292786 72.859695 48.292786 116.589096l0 0c0 91.06177 -73.82013 164.8819 -164.8819 164.8819l0 0c-91.06175 0 -164.8819 -73.82013 -164.8819 -164.8819z" fill-rule="evenodd"/><path fill="#000000" d="m156.67717 270.0l0 0c0 -62.612564 50.757507 -113.37007 113.37007 -113.37007l0 0c30.067627 0 58.903748 11.944305 80.164764 33.205322c21.261017 21.261017 33.205322 50.097137 33.205322 80.16475l0 0c0 62.61258 -50.757507 113.37009 -113.37009 113.37009l0 0c-62.612564 0 -113.37007 -50.757507 -113.37007 -113.37009z" fill-rule="evenodd"/><path stroke="#595959" stroke-width="1.0" stroke-linejoin="round" stroke-linecap="butt" d="m156.67717 270.0l0 0c0 -62.612564 50.757507 -113.37007 113.37007 -113.37007l0 0c30.067627 0 58.903748 11.944305 80.164764 33.205322c21.261017 21.261017 33.205322 50.097137 33.205322 80.16475l0 0c0 62.61258 -50.757507 113.37009 -113.37009 113.37009l0 0c-62.612564 0 -113.37007 -50.757507 -113.37007 -113.37009z" fill-rule="evenodd"/><path fill="#ffffff" d="m270.04724 233.81102l0 0c0 -19.986618 16.202362 -36.18898 36.188965 -36.18898l0 0c9.597931 0 18.802734 3.8127594 25.589478 10.599518c6.786743 6.786743 10.599518 15.991547 10.599518 25.589462l0 0c0 19.986618 -16.202362 36.18898 -36.188995 36.18898l0 0c-19.986603 0 -36.188965 -16.202362 -36.188965 -36.18898z" fill-rule="evenodd"/><path stroke="#ffffff" stroke-width="1.0" stroke-linejoin="round" stroke-linecap="butt" d="m270.04724 233.81102l0 0c0 -19.986618 16.202362 -36.18898 36.188965 -36.18898l0 0c9.597931 0 18.802734 3.8127594 25.589478 10.599518c6.786743 6.786743 10.599518 15.991547 10.599518 25.589462l0 0c0 19.986618 -16.202362 36.18898 -36.188995 36.18898l0 0c-19.986603 0 -36.188965 -16.202362 -36.188965 -36.18898z" fill-rule="evenodd"/></g></svg>