<?xml version="1.0" encoding="UTF-8" standalone="no"?>
<!-- Created with Inkscape (http://www.inkscape.org/) -->

<svg
   version="1.1"
   id="svg9"
   width="509.60117"
   height="510.5831"
   viewBox="0 0 509.60117 510.5831"
   sodipodi:docname="lens.svg"
   inkscape:version="1.1 (c68e22c387, 2021-05-23)"
   xmlns:inkscape="http://www.inkscape.org/namespaces/inkscape"
   xmlns:sodipodi="http://sodipodi.sourceforge.net/DTD/sodipodi-0.dtd"
   xmlns="http://www.w3.org/2000/svg"
   xmlns:svg="http://www.w3.org/2000/svg">
  <defs
     id="defs13" />
  <sodipodi:namedview
     id="namedview11"
     pagecolor="#ffffff"
     bordercolor="#666666"
     borderopacity="1.0"
     inkscape:pageshadow="2"
     inkscape:pageopacity="0.0"
     inkscape:pagecheckerboard="0"
     showgrid="false"
     fit-margin-top="0"
     fit-margin-left="0"
     fit-margin-right="0"
     fit-margin-bottom="0"
     inkscape:zoom="1.074435"
     inkscape:cx="230.81899"
     inkscape:cy="252.69095"
     inkscape:window-width="1920"
     inkscape:window-height="1027"
     inkscape:window-x="1912"
     inkscape:window-y="-8"
     inkscape:window-maximized="1"
     inkscape:current-layer="g15" />
  <g
     inkscape:groupmode="layer"
     inkscape:label="Image"
     id="g15"
     transform="translate(-15.177372,-16.866688)">
    <path
       style="fill:#000000"
       d="m 246.14088,527.07753 c -30.92897,-3.71079 -52.86295,-9.32343 -77,-19.70339 C 84.829304,471.1166 25.861934,390.98068 16.169584,299.48803 c -1.32295,-12.48817 -1.32295,-42.09065 0,-54.57882 6.11845,-57.75618 32.15542,-112.26383 73.45772,-153.78163 38.211406,-38.410779 87.618346,-63.530418 141.513576,-71.948795 14.32811,-2.238036 48.54378,-3.060472 63.59292,-1.528572 83.94939,8.545475 158.19328,57.6011 199.44442,131.780157 13.88437,24.9673 23.34707,52.98137 28.63333,84.76825 2.61518,15.72542 2.62468,60.17468 0.0162,76 -7.25429,44.0114 -23.32741,81.82769 -49.78665,117.13634 -8.35042,11.14325 -32.8453,36.28817 -43.40025,44.55199 -36.55396,28.61931 -76.84726,46.31291 -121.5,53.35309 -10.06916,1.58756 -53.38362,2.87127 -62,1.83749 z m 54,-24.99611 c 60.2948,-7.70601 116.87906,-40.61871 154.26305,-89.72836 l 6.03623,-7.92952 -130.89964,0.73827 c -71.9948,0.40605 -131.05494,0.88574 -131.24474,1.06598 -0.18981,0.18023 12.10662,22.16512 27.3254,48.85529 l 27.67051,48.5276 6.6746,0.32896 c 10.62953,0.52387 27.7221,-0.26672 40.17459,-1.85822 z M 183.88425,389.68468 c -35.44844,-62.23371 -64.85483,-113.16761 -65.34754,-113.18646 -0.73393,-0.0281 -41.018666,67.05223 -54.021596,89.9543 l -3.55073,6.2539 4.24216,7.7461 C 98.02691,440.38191 149.69687,481.0821 213.5627,497.31197 c 9.28924,2.36063 33.62137,6.46641 34.42572,5.80897 0.19115,-0.15624 -28.65573,-51.20255 -64.10417,-113.43626 z m 278.87726,10.24863 c 3.43842,-2.25423 18.06588,-30.22079 23.71613,-45.34338 10.48636,-28.06615 14.79889,-52.26844 14.77015,-82.89131 -0.0295,-31.47773 -4.57456,-55.38767 -16.30014,-85.75 -2.17714,-5.6375 -4.26181,-10.24418 -4.6326,-10.23706 -0.5069,0.01 -106.59643,183.09272 -126.98208,219.1381 l -3.30791,5.84896 55.80791,-0.0153 c 30.69435,-0.008 56.3122,-0.34592 56.92854,-0.75 z m -337.11934,-144.73469 65.55171,-111 -56.2765,-0.25966 c -30.95207,-0.14281 -56.783106,-0.0659 -57.402296,0.17096 -1.75634,0.67179 -13.79358,21.99634 -18.67784,33.0887 -20.96969,47.623 -25.6934,102.04827 -13.17129,151.75593 4.05074,16.07979 11.98603,38.08013 13.5426,37.54644 0.48504,-0.1663 30.38017,-50.25237 66.433616,-111.30237 z m 324.9339,-36.76961 27.56741,-47.76961 -3.89266,-7.73039 C 458.53581,131.72079 429.24991,99.842175 396.64088,78.448195 365.6639,58.124959 333.79846,46.720898 292.9,41.32122 l -3.74087,-0.493894 1.74087,3.28949 c 7.53074,14.22978 130.87752,223.341564 131.4156,222.790974 0.38118,-0.39004 13.09839,-22.20549 28.26047,-48.47878 z M 342.14088,140.13465 c 0,-0.91006 -56.14413,-96.796809 -57.58649,-98.350096 -1.83345,-1.974467 -29.47688,-1.733444 -45.10129,0.393237 -52.43027,7.136427 -101.11115,31.985892 -137.04595,69.955969 -8.511806,8.9939 -22.245036,26.15444 -22.259666,27.81486 -0.004,0.4125 58.943396,0.75 130.993396,0.75 72.05,0 131,-0.25378 131,-0.56397 z"
       id="path117" />
  </g>
</svg>
