<?xml version="1.0" encoding="UTF-8" standalone="no"?>
<!-- Created with Inkscape (http://www.inkscape.org/) -->

<svg
   version="1.1"
   id="svg302"
   width="509.60117"
   height="510.5831"
   viewBox="0 0 509.60117 510.5831"
   sodipodi:docname="lens.svg"
   inkscape:version="1.1 (c68e22c387, 2021-05-23)"
   xmlns:inkscape="http://www.inkscape.org/namespaces/inkscape"
   xmlns:sodipodi="http://sodipodi.sourceforge.net/DTD/sodipodi-0.dtd"
   xmlns="http://www.w3.org/2000/svg"
   xmlns:svg="http://www.w3.org/2000/svg">
  <defs
     id="defs306" />
  <sodipodi:namedview
     id="namedview304"
     pagecolor="#ffffff"
     bordercolor="#666666"
     borderopacity="1.0"
     inkscape:pageshadow="2"
     inkscape:pageopacity="0.0"
     inkscape:pagecheckerboard="0"
     showgrid="false"
     fit-margin-top="0"
     fit-margin-left="0"
     fit-margin-right="0"
     fit-margin-bottom="0"
     inkscape:zoom="1.5621521"
     inkscape:cx="248.3753"
     inkscape:cy="257.65736"
     inkscape:window-width="1920"
     inkscape:window-height="1027"
     inkscape:window-x="1912"
     inkscape:window-y="-8"
     inkscape:window-maximized="1"
     inkscape:current-layer="g308" />
  <g
     inkscape:groupmode="layer"
     inkscape:label="Image"
     id="g308"
     transform="translate(-22.078059,-12.247637)">
    <path
       style="fill:#000000"
       d="m 253.04156,522.45848 c -30.92897,-3.71079 -52.86295,-9.32343 -77,-19.70339 C 91.729994,466.49755 32.762624,386.36163 23.070264,294.86898 c -1.32294,-12.48817 -1.32294,-42.09065 0,-54.57882 6.11845,-57.75618 32.15543,-112.26383 73.45773,-153.781631 C 134.73939,48.09775 184.14633,22.978111 238.04156,14.559734 c 14.32811,-2.238036 48.54378,-3.060472 63.59292,-1.528572 83.94939,8.545475 158.19328,57.6011 199.44442,131.780158 13.88437,24.9673 23.34707,52.98137 28.63333,84.76825 2.61518,15.72542 2.62468,60.17468 0.0162,76 -7.25429,44.0114 -23.32741,81.82769 -49.78665,117.13634 -8.35042,11.14325 -32.8453,36.28817 -43.40025,44.55199 -36.55396,28.61931 -76.84726,46.31291 -121.5,53.35309 -10.06916,1.58756 -53.38362,2.87127 -62,1.83749 z m 54,-24.99611 c 24.67623,-3.15376 47.99611,-10.27228 71.5,-21.82576 24.13601,-11.86421 41.59889,-24.29465 60.86502,-43.32499 9.35522,-9.24073 23.34052,-25.20108 22.43283,-25.60086 -0.16382,-0.0722 -55.76226,0.0938 -123.5521,0.36881 l -123.25425,0.5 26.01561,45.68749 c 25.22018,44.29058 26.11464,45.69921 29.25425,46.07082 5.4813,0.64878 24.64056,-0.3293 36.73864,-1.87551 z m -61.21598,-3.6328 C 222.27516,451.89813 125.61904,283.08169 125.1648,283.08738 c -0.56078,0.007 -48.075506,79.49146 -52.418956,87.68842 l -1.79573,3.38889 6.94226,11.70744 c 34.631686,58.40298 92.005266,98.2725 158.649186,110.24701 5.5,0.98824 10.37597,1.83361 10.83549,1.87861 0.45953,0.045 -0.23864,-1.83068 -1.55147,-4.16818 z m 230.53533,-108.5 c 12.60784,-20.92722 22.79903,-47.68278 27.66366,-72.62716 3.17279,-16.26907 4.14139,-26.98474 4.1239,-45.62284 -0.0188,-20.01372 -1.8303,-36.01347 -6.05736,-53.5 -2.88949,-11.95329 -10.18756,-34.03801 -11.77157,-35.62202 -0.6187,-0.6187 -121.25261,207.35535 -123.11131,212.24511 -0.18843,0.49571 22.71083,0.87691 52.67759,0.87691 h 53.01093 z M 125.29156,250.73948 c 33.9625,-57.36852 61.75,-104.61095 61.75,-104.98316 0,-0.37221 -24.04118,-0.67675 -53.42485,-0.67675 H 80.191874 l -4.99637,8.75 c -10.88618,19.06469 -18.89386,40.0657 -24.14349,63.319 -6.67706,29.57608 -6.8315,70.09195 -0.37901,99.431 3.04939,13.8654 10.90105,38.52035 12.25541,38.48316 0.33723,-0.009 28.40065,-46.95472 62.363146,-104.32325 z m 330.60375,-47.00099 c 13.83044,-24.1126 25.14625,-44.32622 25.14625,-44.91915 0,-1.58237 -5.46313,-11.00581 -12.14755,-20.9535 -30.75598,-45.770723 -81.22622,-81.318046 -134.45368,-94.698732 -11.53782,-2.900456 -30.39562,-6.498885 -30.85851,-5.888392 -0.12546,0.165471 27.91521,48.312057 62.3126,106.992414 52.70381,89.91026 62.72268,106.4255 63.69767,105 0.63634,-0.93036 12.47278,-21.42005 26.30322,-45.53264 z m -117.85375,-74.6533 c 0,-1.22109 -51.75867,-89.912218 -53.69295,-92.005618 -1.119,-1.21105 -3.83446,-1.448971 -14.09652,-1.2351 -59.45095,1.239017 -118.46947,27.234242 -159.72977,70.354388 -7.66222,8.0076 -19.480756,22.15977 -19.480756,23.32733 0,0.30436 55.574996,0.55338 123.499996,0.55338 81.20114,0 123.5,-0.34058 123.5,-0.99438 z"
       id="path348" />
  </g>
</svg>
