<?xml version="1.0" encoding="UTF-8" standalone="no"?>
<svg
   xmlns:dc="http://purl.org/dc/elements/1.1/"
   xmlns:cc="http://creativecommons.org/ns#"
   xmlns:rdf="http://www.w3.org/1999/02/22-rdf-syntax-ns#"
   xmlns:svg="http://www.w3.org/2000/svg"
   xmlns="http://www.w3.org/2000/svg"
   xmlns:sodipodi="http://sodipodi.sourceforge.net/DTD/sodipodi-0.dtd"
   xmlns:inkscape="http://www.inkscape.org/namespaces/inkscape"
   version="1.1"
   id="svg10"
   width="296.62784"
   height="454.8132"
   viewBox="0 0 296.62784 454.8132"
   sodipodi:docname="pin.svg"
   inkscape:version="1.0.2-2 (e86c870879, 2021-01-15)">
  <metadata
     id="metadata16">
    <rdf:RDF>
      <cc:Work
         rdf:about="">
        <dc:format>image/svg+xml</dc:format>
        <dc:type
           rdf:resource="http://purl.org/dc/dcmitype/StillImage" />
        <dc:title></dc:title>
      </cc:Work>
    </rdf:RDF>
  </metadata>
  <defs
     id="defs14" />
  <sodipodi:namedview
     pagecolor="#ffffff"
     bordercolor="#666666"
     borderopacity="1"
     objecttolerance="10"
     gridtolerance="10"
     guidetolerance="10"
     inkscape:pageopacity="0"
     inkscape:pageshadow="2"
     inkscape:window-width="1920"
     inkscape:window-height="1027"
     id="namedview12"
     showgrid="false"
     fit-margin-top="1"
     fit-margin-left="1"
     fit-margin-right="1"
     fit-margin-bottom="0"
     inkscape:zoom="1.3725806"
     inkscape:cx="408.16545"
     inkscape:cy="259.73917"
     inkscape:window-x="1912"
     inkscape:window-y="-8"
     inkscape:window-maximized="1"
     inkscape:current-layer="g18" />
  <g
     inkscape:groupmode="layer"
     inkscape:label="Image"
     id="g18"
     transform="translate(107.66545,-50.260832)">
    <path
       style="fill:#000000"
       d="m -7.8664717,410.98621 -47.0460203,-94.08783 -8.4256,-8.42559 c -24.06169,-24.06169 -38.401018,-53.5025 -43.044438,-88.37672 -2.59495,-19.48926 -1.25957,-38.82127 4.06297,-58.81873 C -82.434682,86.567241 -8.5664717,39.043281 66.677438,52.551181 121.18971,62.337301 167.10362,103.92878 182.66169,157.61644 c 15.77707,54.44336 1.47309,111.41454 -37.84505,150.73267 l -8.54927,8.54927 -47.046022,94.08783 c -30.98611,61.96945 -47.55735,94.08782 -48.54391,94.08782 -0.98656,0 -17.5578,-32.11837 -48.5439097,-94.08782 z M 61.677438,263.69253 c 11.01718,-3.53558 19.70655,-8.85572 27.98467,-17.13383 8.2218,-8.22181 13.539552,-16.87122 17.205262,-27.98467 2.29678,-6.96321 2.64235,-9.68478 2.66649,-21 0.0244,-11.46082 -0.28799,-13.94719 -2.63876,-21 -3.71256,-11.13846 -9.013272,-19.69072 -17.319552,-27.94369 -8.4167,-8.36269 -16.94977,-13.63648 -27.89811,-17.24221 -6.83227,-2.25014 -9.82457,-2.64646 -20.5,-2.71517 -10.40318,-0.0669 -13.75809,0.30851 -20,2.23826 -22.6259697,6.99506 -40.16775,24.53684 -47.16281,47.16281 -1.92897,6.23939 -2.30556,9.60102 -2.2405,20 0.0663,10.59457 0.46923,13.68564 2.64345,20.27805 6.79341,20.59814 22.6666603,37.2176 42.38123,44.37361 9.41439,3.41724 15.4851,4.29587 26.87863,3.89021 7.22205,-0.25714 12.22236,-1.06924 18,-2.92337 z"
       id="path22" />
  </g>
</svg>
