<?xml version="1.0" encoding="UTF-8" standalone="no"?>
<svg
   xmlns:dc="http://purl.org/dc/elements/1.1/"
   xmlns:cc="http://creativecommons.org/ns#"
   xmlns:rdf="http://www.w3.org/1999/02/22-rdf-syntax-ns#"
   xmlns:svg="http://www.w3.org/2000/svg"
   xmlns="http://www.w3.org/2000/svg"
   xmlns:sodipodi="http://sodipodi.sourceforge.net/DTD/sodipodi-0.dtd"
   xmlns:inkscape="http://www.inkscape.org/namespaces/inkscape"
   width="151.69629mm"
   height="151.68311mm"
   viewBox="0 0 151.69629 151.68311"
   version="1.1"
   id="svg8"
   inkscape:version="1.0.2-2 (e86c870879, 2021-01-15)"
   sodipodi:docname="search.svg">
  <defs
     id="defs2" />
  <sodipodi:namedview
     id="base"
     pagecolor="#ffffff"
     bordercolor="#666666"
     borderopacity="1.0"
     inkscape:pageopacity="0.0"
     inkscape:pageshadow="2"
     inkscape:zoom="2.8"
     inkscape:cx="483.55057"
     inkscape:cy="-27.805603"
     inkscape:document-units="mm"
     inkscape:current-layer="layer1"
     inkscape:document-rotation="0"
     showgrid="false"
     fit-margin-top="1"
     fit-margin-left="0"
     fit-margin-right="0"
     fit-margin-bottom="0"
     inkscape:window-width="1639"
     inkscape:window-height="1041"
     inkscape:window-x="2154"
     inkscape:window-y="0"
     inkscape:window-maximized="0" />
  <metadata
     id="metadata5">
    <rdf:RDF>
      <cc:Work
         rdf:about="">
        <dc:format>image/svg+xml</dc:format>
        <dc:type
           rdf:resource="http://purl.org/dc/dcmitype/StillImage" />
        <dc:title></dc:title>
      </cc:Work>
    </rdf:RDF>
  </metadata>
  <g
     inkscape:label="レイヤー 1"
     inkscape:groupmode="layer"
     id="layer1"
     transform="translate(-31.96057,-53.469994)">
    <path
       style="fill:#000000;stroke-width:0.264583"
       d="m 169.66323,203.9594 c -0.65485,-0.37516 -1.62046,-1.02179 -2.1458,-1.43696 -0.52535,-0.41516 -1.01065,-0.69936 -1.07846,-0.63155 -0.28473,0.28472 -11.5631,-10.74077 -28.64626,-28.00395 -15.16056,-15.32032 -18.33523,-18.40793 -18.78139,-18.26633 -0.29531,0.0937 -1.16381,0.63352 -1.93001,1.19955 -0.76619,0.56602 -1.39308,0.95126 -1.39308,0.85609 0,-0.0952 -0.16966,-0.0322 -0.37702,0.13986 -0.57286,0.47544 -6.11419,3.15093 -6.95437,3.35775 -0.40612,0.1 -1.27418,0.4118 -1.92903,0.69295 -0.65484,0.28115 -1.36922,0.55573 -1.5875,0.61019 -0.21828,0.0545 -1.28984,0.34644 -2.38125,0.64884 -1.0914,0.3024 -2.2225,0.5865 -2.513538,0.63133 -0.291039,0.0448 -0.886349,0.15876 -1.322919,0.25319 -0.43656,0.0944 -1.21047,0.22981 -1.71979,0.30087 -0.50932,0.071 -1.64041,0.23438 -2.51354,0.36294 -1.61497,0.2378 -12.04633,0.19367 -13.49375,-0.0571 -4.80983,-0.83326 -5.88259,-1.04889 -6.28221,-1.26277 -0.25557,-0.13677 -0.46466,-0.19024 -0.46466,-0.11881 0,0.0714 -0.50602,-0.0553 -1.12448,-0.28152 -0.61847,-0.22626 -1.30308,-0.43521 -1.52136,-0.46432 -0.78523,-0.10474 -2.79019,-0.79819 -3.37344,-1.16675 -0.32742,-0.2069 -0.59531,-0.29623 -0.59531,-0.1985 0,0.0977 -0.32742,-2.7e-4 -0.7276,-0.21804 -0.40018,-0.21765 -1.8587,-0.93892 -3.24115,-1.60281 -1.38245,-0.6639 -3.10885,-1.56683 -3.83646,-2.00651 -0.7276,-0.43969 -1.50151,-0.87558 -1.71979,-0.96866 -0.21828,-0.0931 -1.13846,-0.7452 -2.04484,-1.44918 -0.90638,-0.70398 -1.76137,-1.27996 -1.89997,-1.27996 -0.33819,0 -9.01977,-8.45549 -9.01977,-8.78488 0,-0.14236 -0.52251,-0.87315 -1.16114,-1.62396 -1.17984,-1.38711 -3.60136,-4.81438 -3.60136,-5.09715 0,-0.0853 -0.24623,-0.50083 -0.54718,-0.92347 -0.30096,-0.42265 -0.46497,-0.76845 -0.36448,-0.76845 0.10049,0 0.0617,-0.14883 -0.0861,-0.33073 -0.70028,-0.86168 -3.58267,-7.10843 -3.63201,-7.87136 -0.005,-0.0728 -0.10279,-0.28067 -0.21795,-0.46202 -0.11516,-0.18135 -0.26189,-0.53854 -0.32607,-0.79375 -0.0642,-0.25521 -0.35386,-1.41652 -0.64373,-2.58068 -0.28987,-1.16417 -0.64491,-2.4756 -0.78896,-2.91428 -0.14405,-0.43869 -0.32723,-1.33166 -0.40706,-1.98438 -0.0798,-0.65272 -0.19512,-1.36535 -0.2562,-1.58364 -0.47795,-1.70812 -0.72499,-9.31026 -0.4127,-12.7 0.43099,-4.67806 0.48415,-5.04714 1.07739,-7.47908 0.29223,-1.198015 0.59373,-2.475865 0.66998,-2.839667 0.21096,-1.006443 0.63507,-2.324746 1.40244,-4.359294 0.38288,-1.015166 0.7067,-1.908135 0.71959,-1.984374 0.0394,-0.232797 1.42965,-3.233243 2.1484,-4.63654 1.29804,-2.534296 1.65229,-3.150452 2.44968,-4.260797 0.44134,-0.614556 0.80244,-1.196938 0.80244,-1.294178 0,-0.09724 0.41672,-0.685353 0.92604,-1.306914 0.50932,-0.62156 0.92604,-1.263113 0.92604,-1.425668 0,-0.162557 0.35719,-0.559639 0.79375,-0.882404 0.43657,-0.322765 0.79375,-0.714878 0.79375,-0.871363 0,-0.156482 1.66688,-1.948201 3.70417,-3.981593 2.03729,-2.033391 3.70417,-3.597595 3.70417,-3.476005 0,0.121589 0.71437,-0.397802 1.5875,-1.154203 0.87312,-0.756401 1.5875,-1.295993 1.5875,-1.199089 0,0.0969 0.50601,-0.23009 1.12447,-0.726646 0.61847,-0.496557 1.30308,-0.980141 1.52136,-1.074635 0.21828,-0.09449 0.99219,-0.521872 1.71979,-0.949735 1.88168,-1.106514 6.49514,-3.355186 7.40833,-3.610946 0.14552,-0.04076 0.97896,-0.334441 1.85209,-0.652631 1.65182,-0.60197 4.90406,-1.560505 5.82083,-1.715577 0.29104,-0.04923 1.76942,-0.318744 3.28528,-0.598916 5.15071,-0.951998 14.32651,-0.97726 18.80743,-0.05178 0.80036,0.165306 1.81239,0.356563 2.24896,0.425013 0.436557,0.06845 1.091397,0.235077 1.455207,0.370276 0.3638,0.135203 0.95911,0.303147 1.32291,0.373211 0.56611,0.109027 1.80648,0.453329 4.10104,1.138365 0.29105,0.08689 0.79706,0.330697 1.12448,0.541797 0.32742,0.211101 0.59531,0.307536 0.59531,0.214302 0,-0.09323 0.38696,0.03691 0.8599,0.289209 0.47294,0.252298 0.91943,0.467936 0.99219,0.479192 0.0728,0.01124 0.40018,0.169264 0.7276,0.351128 0.32742,0.181864 0.59531,0.262649 0.59531,0.179523 0,-0.08313 0.44436,0.150809 0.98746,0.519858 0.54311,0.369049 1.12236,0.670997 1.28724,0.670997 0.16488,0 0.61349,0.246766 0.99691,0.54837 0.38343,0.301604 0.69714,0.474477 0.69714,0.384164 0,-0.09031 0.52747,0.198702 1.17216,0.642255 0.64468,0.443553 1.2575,0.806461 1.36181,0.806461 0.10431,0 0.70794,0.42469 1.34139,0.943755 0.63345,0.519065 1.15173,0.868006 1.15173,0.775423 0,-0.09258 0.90561,0.580768 2.01247,1.496332 2.25861,1.868255 10.25703,10.003179 10.0444,10.215811 -0.0755,0.07549 0.34708,0.71573 0.93904,1.422757 0.59195,0.707028 0.9996,1.285505 0.90589,1.285505 -0.0937,0 0.13332,0.398192 0.50452,0.88487 0.37121,0.48668 0.67493,0.981456 0.67493,1.099505 0,0.118049 0.30371,0.612825 0.67492,1.099505 0.37121,0.486677 0.60784,0.88487 0.52585,0.88487 -0.082,0 0.12453,0.446484 0.45893,0.992187 0.52355,0.854374 1.25578,2.287389 1.38574,2.711979 0.0223,0.07276 0.30934,0.727605 0.63793,1.455209 0.32859,0.727604 0.64179,1.543423 0.696,1.812933 0.0542,0.269507 0.21199,0.626694 0.35063,0.79375 0.13865,0.167052 0.25316,0.395829 0.25448,0.508391 0.001,0.112562 0.24355,1.005531 0.53828,1.984375 0.78028,2.591403 1.19041,4.137549 1.14849,4.329621 -0.0202,0.09276 0.0802,0.56901 0.22327,1.058333 0.14305,0.489326 0.31317,1.36593 0.37805,1.948013 0.0649,0.58208 0.23066,1.71318 0.36841,2.51354 0.33487,1.94564 0.19181,13.60079 -0.18348,14.94896 -0.16204,0.58209 -0.35803,1.53459 -0.43555,2.11667 -0.0775,0.58208 -0.38414,1.9513 -0.68141,3.04271 -0.29726,1.0914 -0.60067,2.26887 -0.67425,2.61658 -0.0736,0.34771 -0.30095,1.03232 -0.50528,1.52135 -0.20433,0.48903 -0.31132,0.88915 -0.23776,0.88915 0.0736,0 -0.041,0.32742 -0.2546,0.72761 -0.21359,0.40018 -0.53761,1.14432 -0.72005,1.65364 -0.51705,1.44344 -2.98186,6.42225 -3.6301,7.33261 -0.3207,0.45038 -0.58309,0.90873 -0.58309,1.01857 0,0.10983 -0.48512,0.84223 -1.07805,1.62756 l -1.07805,1.42787 14.90992,15.00034 c 21.16912,21.29752 30.37327,30.69841 30.37327,31.02253 0,0.15466 0.44648,0.81533 0.99219,1.46817 0.5457,0.65284 0.99237,1.27082 0.99259,1.37331 2.3e-4,0.10248 0.26812,0.5619 0.59532,1.02093 0.32719,0.45902 0.5949,1.00076 0.5949,1.20385 0,0.20309 0.12656,0.49582 0.28125,0.65051 0.15468,0.15469 0.29215,0.66484 0.30548,1.13368 0.0217,0.7625 -0.46134,1.33862 -4.57789,5.46021 -4.45057,4.45603 -4.63708,4.60741 -5.6633,4.59661 -0.63906,-0.007 -1.53477,-0.2825 -2.25179,-0.69328 z M 92.140313,148.97519 c 0.94589,-0.0724 2.09779,-0.24135 2.55977,-0.37544 0.46199,-0.13408 0.89196,-0.19181 0.9555,-0.12828 0.0635,0.0635 0.4358,-0.006 0.82726,-0.15509 0.39147,-0.14884 1.09259,-0.33696 1.55805,-0.41805 0.92988,-0.16199 3.019497,-0.83432 3.470777,-1.11671 0.15726,-0.0984 0.43502,-0.20155 0.61723,-0.22919 0.33467,-0.0508 2.42197,-0.96466 3.34297,-1.46367 1.49018,-0.80739 2.44295,-1.36123 2.70008,-1.56956 0.15891,-0.12875 0.34669,-0.17633 0.41729,-0.10572 0.0706,0.0706 0.61436,-0.28762 1.20834,-0.79605 0.59399,-0.50843 1.20528,-0.92442 1.35843,-0.92442 0.74404,0 9.5593,-9.16499 9.5593,-9.93855 0,-0.11343 0.16637,-0.39421 0.36972,-0.62395 0.6132,-0.69279 2.6485,-4.37698 2.93484,-5.3125 0.10124,-0.33076 0.75995,-1.78858 1.10585,-2.44739 0.2101,-0.40018 0.31269,-0.72761 0.22796,-0.72761 -0.0847,0 0.016,-0.32879 0.2238,-0.73066 0.20781,-0.40186 0.43746,-1.10894 0.51032,-1.57128 0.0729,-0.46234 0.20037,-0.95046 0.28335,-1.08472 0.083,-0.13425 0.2059,-0.64756 0.27318,-1.14069 0.0673,-0.49313 0.26318,-1.55145 0.43534,-2.35181 0.41146,-1.91286 0.57713,-9.29582 0.2464,-10.98021 -0.14287,-0.72761 -0.32263,-1.84258 -0.39947,-2.47773 -0.0768,-0.63514 -0.25147,-1.36363 -0.38807,-1.61885 -0.13659,-0.25523 -0.19623,-0.51617 -0.13254,-0.57987 0.0637,-0.0637 -0.0221,-0.585361 -0.19067,-1.159263 -0.16857,-0.5739 -0.32198,-1.102987 -0.34092,-1.175747 -0.29718,-1.141781 -0.97429,-3.046963 -1.16423,-3.275836 -0.13574,-0.163549 -0.5042,-0.951907 -0.81882,-1.751909 -0.31461,-0.8 -0.73272,-1.633141 -0.92913,-1.851422 -0.19642,-0.218281 -0.37803,-0.515937 -0.40358,-0.661458 -0.0996,-0.567275 -1.46197,-2.710948 -2.54213,-4.000082 -0.62409,-0.744837 -1.07838,-1.410581 -1.00953,-1.479431 0.16933,-0.169333 -7.19184,-7.352779 -7.5347,-7.352779 -0.14918,0 -0.89873,-0.475736 -1.66566,-1.057195 -0.76694,-0.581457 -1.49512,-1.057707 -1.61817,-1.058334 -0.12306,-5.29e-4 -0.59931,-0.268843 -1.05834,-0.59604 -0.45902,-0.327194 -0.89412,-0.600077 -0.96688,-0.606401 -0.0728,-0.0063 -0.48948,-0.195461 -0.92604,-0.420301 -0.43657,-0.22484 -1.50813,-0.676492 -2.38125,-1.003668 -0.87313,-0.327178 -1.91493,-0.770035 -2.31511,-0.984131 -0.40018,-0.214095 -0.727597,-0.328282 -0.727597,-0.253749 0,0.07453 -0.48395,-0.03523 -1.07544,-0.243924 -0.59149,-0.20869 -1.15704,-0.360969 -1.25677,-0.338397 -0.0997,0.02257 -0.65758,-0.09324 -1.23967,-0.257355 -3.47116,-0.978678 -9.33369,-1.168059 -14.55208,-0.470085 -1.64775,0.220393 -6.39259,1.439238 -7.60677,1.954014 -0.80929,0.343114 -1.81813,0.736539 -2.10665,0.821542 -0.2892,0.0852 -3.91253,1.965251 -5.10325,2.647939 -0.58208,0.333732 -1.61063,1.068721 -2.28567,1.63331 -0.67504,0.564589 -1.34423,1.026525 -1.48708,1.026525 -0.353,0 -7.47204,7.340119 -7.47204,7.704077 0,0.15926 -0.343,0.723418 -0.76222,1.253683 -1.03054,1.303499 -3.33442,5.439389 -3.153,5.660223 0.03,0.03652 -0.1389,0.423579 -0.37532,0.860142 -0.67823,1.252376 -1.78602,4.291565 -1.95679,5.368396 -0.0856,0.539882 -0.25104,1.160196 -0.36759,1.378476 -0.11655,0.21828 -0.29484,1.05172 -0.39619,1.85209 -0.10135,0.80036 -0.25366,1.56788 -0.33847,1.70559 -0.25938,0.4212 -0.31054,8.94827 -0.0604,10.07213 0.12908,0.58002 0.29372,1.55241 0.36586,2.16088 0.1757,1.48187 0.91918,4.52522 1.34565,5.50827 0.30137,0.69468 0.99793,2.67143 1.07218,3.04271 0.0836,0.41802 1.33564,2.85056 1.66823,3.24115 0.21685,0.25466 0.31023,0.46302 0.20751,0.46302 -0.10272,0 0.10313,0.38695 0.45745,0.85989 0.35432,0.47295 0.72061,1.11209 0.81397,1.42032 0.0934,0.30823 0.40484,0.77316 0.69217,1.03319 0.28732,0.26003 0.52241,0.62832 0.52241,0.81843 0,0.85934 8.37973,8.89047 10.55344,10.1144 0.34736,0.19559 1.06134,0.59701 1.58663,0.89204 0.52529,0.29504 1.23941,0.76009 1.58693,1.03346 0.34753,0.27336 0.73134,0.49702 0.85292,0.49702 0.12159,0 0.84967,0.28368 1.61797,0.63041 1.36127,0.61433 2.58516,1.05135 2.85211,1.01841 0.0728,-0.009 0.26696,0.0954 0.43156,0.23204 0.30578,0.25378 2.78948,0.97265 4.17445,1.20823 0.42325,0.072 1.05343,0.23883 1.4004,0.37075 0.34696,0.13192 1.90566,0.31558 3.46378,0.40814 1.55811,0.0926 2.88733,0.21741 2.95381,0.27745 0.0665,0.06 0.89991,0.0461 1.85208,-0.031 0.95217,-0.0771 2.50512,-0.19942 3.451,-0.27182 z"
       id="path24" />
  </g>
</svg>
