<?xml version="1.0" encoding="UTF-8" standalone="no"?>
<svg
   xmlns:dc="http://purl.org/dc/elements/1.1/"
   xmlns:cc="http://creativecommons.org/ns#"
   xmlns:rdf="http://www.w3.org/1999/02/22-rdf-syntax-ns#"
   xmlns:svg="http://www.w3.org/2000/svg"
   xmlns="http://www.w3.org/2000/svg"
   xmlns:sodipodi="http://sodipodi.sourceforge.net/DTD/sodipodi-0.dtd"
   xmlns:inkscape="http://www.inkscape.org/namespaces/inkscape"
   width="92.874008mm"
   height="106.09267mm"
   viewBox="0 0 92.874008 106.09267"
   version="1.1"
   id="svg8"
   inkscape:version="1.0.2-2 (e86c870879, 2021-01-15)"
   sodipodi:docname="tag.svg">
  <defs
     id="defs2" />
  <sodipodi:namedview
     id="base"
     pagecolor="#ffffff"
     bordercolor="#666666"
     borderopacity="1.0"
     inkscape:pageopacity="0.0"
     inkscape:pageshadow="2"
     inkscape:zoom="0.35"
     inkscape:cx="155.32924"
     inkscape:cy="258.32109"
     inkscape:document-units="mm"
     inkscape:current-layer="layer1"
     inkscape:document-rotation="0"
     showgrid="false"
     fit-margin-top="0"
     fit-margin-left="0"
     fit-margin-right="0"
     fit-margin-bottom="0"
     inkscape:window-width="1639"
     inkscape:window-height="1041"
     inkscape:window-x="2024"
     inkscape:window-y="0"
     inkscape:window-maximized="0" />
  <metadata
     id="metadata5">
    <rdf:RDF>
      <cc:Work
         rdf:about="">
        <dc:format>image/svg+xml</dc:format>
        <dc:type
           rdf:resource="http://purl.org/dc/dcmitype/StillImage" />
        <dc:title></dc:title>
      </cc:Work>
    </rdf:RDF>
  </metadata>
  <g
     inkscape:label="レイヤー 1"
     inkscape:groupmode="layer"
     id="layer1"
     transform="translate(-64.735806,-79.819212)">
    <path
       style="fill:#000000;stroke-width:0.264583"
       d="m 85.743986,149.48228 c -11.5539,-20.03629 -21.00758,-36.56167 -21.00818,-36.72307 -5.3e-4,-0.1614 3.31728,-7.63893 7.37308,-16.616728 l 7.37417,-16.32327 0.93815,0.1417 c 0.51599,0.0779 8.61769,0.87464 18.00379,1.77045 9.386094,0.89582 17.082284,1.64208 17.102644,1.65837 0.0204,0.0163 7.89526,13.66226 17.49977,30.324398 9.6045,16.66213 19.07585,33.09006 21.04744,36.50651 1.97158,3.41644 3.56216,6.23273 3.53461,6.25841 -0.0275,0.0257 -11.1229,6.44105 -24.65634,14.25636 -13.53344,7.81531 -24.9653,14.42719 -25.40414,14.69307 l -0.7979,0.48341 z m 9.82371,-34.73858 c 3.42737,-0.71708 6.519104,-3.21836 8.119054,-6.56851 0.9339,-1.95551 0.95596,-2.07492 0.95596,-5.17669 0,-2.90905 -0.0608,-3.304818 -0.72606,-4.724938 -1.66219,-3.54836 -4.141764,-5.83002 -7.416734,-6.82476 -1.43952,-0.43724 -2.31441,-0.52854 -4.25237,-0.44379 -2.14151,0.0937 -2.69063,0.22576 -4.48928,1.07994 -2.72605,1.29459 -4.63725,3.20563 -5.94511,5.94459 -0.95077,1.991148 -0.98295,2.154298 -0.98295,4.983038 0,2.85785 0.0231,2.97128 1.01495,4.97775 2.56735,5.19379 8.11869,7.92581 13.72254,6.75337 z"
       id="path24" />
  </g>
</svg>
